HIERARCHY
ROOT Hips
{
	OFFSET 0.000000 0.000000 0.000000
	CHANNELS 6 Xposition Yposition Zposition Xrotation Yrotation Zrotation
	JOINT LeftUpLeg_virtual
	{
		OFFSET 0.000000 0.000000 0.000000
		CHANNELS 3 Xrotation Yrotation Zrotation
		JOINT LeftUpLeg
		{
			OFFSET 11.394100 -6.187798 -0.413800
			CHANNELS 3 Xrotation Yrotation Zrotation
			JOINT LeftLeg
			{
				OFFSET 0.430247 -32.302673 3.732800
				CHANNELS 3 Xrotation Yrotation Zrotation
				JOINT LeftFoot
				{
					OFFSET -0.430247 -48.264931 -6.423300
					CHANNELS 3 Xrotation Yrotation Zrotation
					JOINT LeftToeBase
					{
						OFFSET 4.230900 -16.068199 23.438400
						CHANNELS 3 Xrotation Yrotation Zrotation
						JOINT LeftToe_End
						{
							OFFSET 4.510700 0.695400 19.974600
							CHANNELS 3 Xrotation Yrotation Zrotation
							End Site
							{
								OFFSET 0 0 0
							}
						}
					}
				}
			}
		}
	}
	JOINT RightUpLeg_virtual
	{
		OFFSET 0.000000 0.000000 0.000000
		CHANNELS 3 Xrotation Yrotation Zrotation
		JOINT RightUpLeg
		{
			OFFSET -11.333700 -6.187798 -0.413800
			CHANNELS 3 Xrotation Yrotation Zrotation
			JOINT RightLeg
			{
				OFFSET -0.430392 -32.302628 3.733000
				CHANNELS 3 Xrotation Yrotation Zrotation
				JOINT RightFoot
				{
					OFFSET 0.430392 -48.264973 -6.423500
					CHANNELS 3 Xrotation Yrotation Zrotation
					JOINT RightToeBase
					{
						OFFSET -4.230900 -16.068199 23.438400
						CHANNELS 3 Xrotation Yrotation Zrotation
						JOINT RightToe_End
						{
							OFFSET -4.510700 0.695400 19.974600
							CHANNELS 3 Xrotation Yrotation Zrotation
							End Site
							{
								OFFSET 0 0 0
							}
						}
					}
				}
			}
		}
	}
	JOINT Spine_virtual
	{
		OFFSET 0.000000 0.000000 0.000000
		CHANNELS 3 Xrotation Yrotation Zrotation
		JOINT Spine
		{
			OFFSET -0.002400 12.777504 0.315300
			CHANNELS 3 Xrotation Yrotation Zrotation
			JOINT Spine1
			{
				OFFSET -0.002067 5.816869 0.032633
				CHANNELS 3 Xrotation Yrotation Zrotation
				JOINT Spine1_split
				{
					OFFSET -0.002067 5.816869 0.032633
					CHANNELS 3 Xrotation Yrotation Zrotation
					JOINT Spine2
					{
						OFFSET -0.002067 5.816869 0.032633
						CHANNELS 3 Xrotation Yrotation Zrotation
						JOINT Neck_virtual
						{
							OFFSET 0.000000 0.000000 0.000000
							CHANNELS 3 Xrotation Yrotation Zrotation
							JOINT Neck
							{
								OFFSET -0.003700 21.199493 -0.826900
								CHANNELS 3 Xrotation Yrotation Zrotation
								JOINT Head
								{
									OFFSET 0.000000 20.442200 4.834800
									CHANNELS 3 Xrotation Yrotation Zrotation
									JOINT HeadTop_End
									{
										OFFSET 0.000000 34.668396 4.968400
										CHANNELS 3 Xrotation Yrotation Zrotation
										End Site
										{
											OFFSET 0 0 0
										}
									}
								}
							}
						}
						JOINT LeftShoulder_virtual
						{
							OFFSET 0.000000 0.000000 0.000000
							CHANNELS 3 Xrotation Yrotation Zrotation
							JOINT LeftShoulder
							{
								OFFSET 3.288150 8.794197 -1.372250
								CHANNELS 3 Xrotation Yrotation Zrotation
								JOINT LeftShoulder_split
								{
									OFFSET 3.288150 8.794197 -1.372250
									CHANNELS 3 Xrotation Yrotation Zrotation
									JOINT LeftArm
									{
										OFFSET 11.953299 -2.279007 -0.146200
										CHANNELS 3 Xrotation Yrotation Zrotation
										JOINT LeftForeArm
										{
											OFFSET 18.448900 0.000000 0.000000
											CHANNELS 3 Xrotation Yrotation Zrotation
											JOINT LeftHand
											{
												OFFSET 29.527798 0.000000 0.000000
												CHANNELS 3 Xrotation Yrotation Zrotation
												End Site
												{
													OFFSET 0 0 0
												}
											}
										}
									}
								}
							}
						}
						JOINT RightShoulder_virtual
						{
							OFFSET 0.000000 0.000000 0.000000
							CHANNELS 3 Xrotation Yrotation Zrotation
							JOINT RightShoulder
							{
								OFFSET -3.249400 8.794197 -1.372250
								CHANNELS 3 Xrotation Yrotation Zrotation
								JOINT RightShoulder_split
								{
									OFFSET -3.249400 8.794197 -1.372250
									CHANNELS 3 Xrotation Yrotation Zrotation
									JOINT RightArm
									{
										OFFSET -11.953299 -2.279007 -0.146200
										CHANNELS 3 Xrotation Yrotation Zrotation
										JOINT RightForeArm
										{
											OFFSET -18.448900 0.000000 0.000000
											CHANNELS 3 Xrotation Yrotation Zrotation
											JOINT RightHand
											{
												OFFSET -29.527802 0.000000 0.000000
												CHANNELS 3 Xrotation Yrotation Zrotation
												End Site
												{
													OFFSET 0 0 0
												}
											}
										}
									}
								}
							}
						}
					}
				}
			}
		}
	}
}
MOTION
Frames: 9
Frame Time: 0.03333333
-0.188529 94.284828 0.075363 0.000000 0.000000 0.000000 -6.091882 -43.084157 -4.028573 -30.528347 4.939423 14.030026 33.600808 -13.722981 -0.142475 -0.499551 0.502402 -8.886926 -2.321966 -3.217389 0.803263 0.000000 0.000000 0.000000 -6.091882 -43.084157 -4.028573 -6.240738 -12.866767 -16.842651 32.320155 -9.243183 -0.477074 -18.021106 -3.762323 17.731227 -1.785094 -0.356711 0.333198 0.000000 0.000000 0.000000 -6.091882 -43.084157 -4.028573 5.833150 4.695330 -1.240713 11.835728 9.038087 -3.084130 0.000000 0.000000 0.000000 0.000000 0.000000 0.000000 11.835731 9.038082 -3.084132 -4.303059 -1.272931 0.206306 -6.271928 20.437791 -0.377164 0.000000 0.000000 0.000000 11.835731 9.038082 -3.084132 1.387431 -0.696988 -7.876280 0.000000 0.000000 0.000000 -14.260091 2.393805 -63.277106 9.865058 -47.524887 5.927937 0.000000 0.000000 0.000000 11.835731 9.038082 -3.084132 1.410920 9.461511 9.792740 0.000000 0.000000 0.000000 1.220046 -24.270710 60.532914 -6.660692 41.858387 8.043852 0.000000 0.000000 0.000000 
-0.182429 94.287498 0.081715 0.000000 0.000000 0.000000 -6.034978 -43.228704 -3.968170 -30.520069 4.938605 13.990113 33.614107 -13.550674 -0.087296 -0.542277 0.508003 -8.939499 -2.321967 -3.217357 0.803264 0.000000 0.000000 0.000000 -6.034978 -43.228704 -3.968170 -6.388967 -12.852953 -16.836457 32.344252 -9.134634 -0.596530 -18.011470 -3.761714 17.737212 -1.785097 -0.356750 0.333194 0.000000 0.000000 0.000000 -6.034978 -43.228704 -3.968170 5.824645 4.697481 -1.260873 11.819974 9.041232 -3.121164 0.000000 0.000000 0.000000 0.000000 0.000000 0.000000 11.819971 9.041238 -3.121163 -4.387863 -1.297852 0.163178 -6.136322 20.653466 -0.443795 0.000000 0.000000 0.000000 11.819971 9.041238 -3.121163 1.389712 -0.709917 -7.876830 0.000000 0.000000 0.000000 -14.244243 2.394033 -63.227218 9.904602 -47.573155 5.947268 0.000000 0.000000 0.000000 11.819971 9.041238 -3.121163 1.393259 9.523884 9.813710 0.000000 0.000000 0.000000 1.197305 -24.211979 60.500682 -6.605039 41.712693 8.037638 0.000000 0.000000 0.000000 
-0.175116 94.291992 0.083183 0.000000 0.000000 0.000000 -5.939832 -43.366227 -3.877763 -30.542663 4.933368 13.954101 33.606184 -13.390279 -0.046348 -0.571549 0.508454 -8.995311 -2.321968 -3.217347 0.803260 0.000000 0.000000 0.000000 -5.939832 -43.366227 -3.877763 -6.553984 -12.812513 -16.824489 32.360432 -9.061896 -0.714461 -17.990699 -3.765645 17.759305 -1.795665 -0.370148 0.345642 0.000000 0.000000 0.000000 -5.939832 -43.366227 -3.877763 5.816837 4.675930 -1.274496 11.803853 8.997834 -3.142078 0.000000 0.000000 0.000000 0.000000 0.000000 0.000000 11.803861 8.997830 -3.142081 -4.445932 -1.219821 0.079433 -6.011194 21.010850 -0.587839 0.000000 0.000000 0.000000 11.803861 8.997830 -3.142081 1.389178 -0.727271 -7.903652 0.000000 0.000000 0.000000 -14.193233 2.416424 -63.198169 9.925536 -47.632684 5.957014 0.000000 0.000000 0.000000 11.803861 8.997830 -3.142081 1.394625 9.568493 9.789848 0.000000 0.000000 0.000000 1.143559 -24.160807 60.514049 -6.548418 41.493034 7.985892 0.000000 0.000000 0.000000 
-0.168363 94.282791 0.085342 0.000000 0.000000 0.000000 -5.868577 -43.437107 -3.820337 -30.594405 4.885837 13.889688 33.664271 -13.253016 0.035137 -0.616592 0.506361 -9.056202 -2.321962 -3.217406 0.803259 0.000000 0.000000 0.000000 -5.868577 -43.437107 -3.820337 -6.680089 -12.798756 -16.793842 32.399204 -9.025404 -0.823690 -17.991280 -3.774304 17.793080 -1.806787 -0.380989 0.356370 0.000000 0.000000 0.000000 -5.868577 -43.437107 -3.820337 5.818300 4.623673 -1.277796 11.804313 8.893247 -3.142280 0.000000 0.000000 0.000000 0.000000 0.000000 0.000000 11.804312 8.893251 -3.142279 -4.539882 -1.073144 0.023833 -5.845979 21.499248 -0.825202 0.000000 0.000000 0.000000 11.804312 8.893251 -3.142279 1.389980 -0.732069 -7.903794 0.000000 0.000000 0.000000 -14.170292 2.428511 -63.191708 9.950654 -47.720749 5.983797 0.000000 0.000000 0.000000 11.804312 8.893251 -3.142279 1.380858 9.601775 9.807592 0.000000 0.000000 0.000000 1.087376 -24.124679 60.474645 -6.503693 41.341677 7.945981 0.000000 0.000000 0.000000 
-0.163572 94.267426 0.091095 0.000000 0.000000 0.000000 -5.773637 -43.473563 -3.757935 -30.686865 4.817133 13.816263 33.752749 -13.124093 0.131814 -0.667424 0.497180 -9.113795 -2.321963 -3.217367 0.803265 0.000000 0.000000 0.000000 -5.773637 -43.473563 -3.757935 -6.801329 -12.771562 -16.741786 32.446981 -9.042300 -0.927025 -17.999831 -3.781824 17.838458 -1.815365 -0.392989 0.367753 0.000000 0.000000 0.000000 -5.773637 -43.473563 -3.757935 5.818449 4.551068 -1.268223 11.800385 8.749120 -3.116194 0.000000 0.000000 0.000000 0.000000 0.000000 0.000000 11.800384 8.749108 -3.116193 -4.616733 -0.905121 -0.032050 -5.697691 22.095669 -1.108010 0.000000 0.000000 0.000000 11.800384 8.749108 -3.116193 1.386661 -0.733908 -7.854092 0.000000 0.000000 0.000000 -14.137248 2.446216 -63.234520 10.003370 -47.795389 6.023977 0.000000 0.000000 0.000000 11.800384 8.749108 -3.116193 1.365000 9.655441 9.837856 0.000000 0.000000 0.000000 1.069883 -24.098449 60.371455 -6.439594 41.224245 7.953334 0.000000 0.000000 0.000000 
-0.164697 94.261360 0.093147 0.000000 0.000000 0.000000 -5.680494 -43.480919 -3.679328 -30.758883 4.787748 13.749680 33.784486 -13.054044 0.195766 -0.692976 0.488195 -9.145382 -2.321460 -3.222547 0.807274 0.000000 0.000000 0.000000 -5.680494 -43.480919 -3.679328 -6.891626 -12.751609 -16.693259 32.466273 -9.090783 -1.028522 -18.002599 -3.790624 17.890543 -1.825567 -0.406413 0.380299 0.000000 0.000000 0.000000 -5.680494 -43.480919 -3.679328 5.823975 4.459925 -1.265656 11.806708 8.567349 -3.100688 0.000000 0.000000 0.000000 0.000000 0.000000 0.000000 11.806709 8.567352 -3.100687 -4.727055 -0.736495 -0.094564 -5.577012 22.835679 -1.357217 0.000000 0.000000 0.000000 11.806709 8.567352 -3.100687 1.382763 -0.743541 -7.811297 0.000000 0.000000 0.000000 -14.101907 2.479801 -63.266895 9.979622 -47.901196 6.023742 0.000000 0.000000 0.000000 11.806709 8.567352 -3.100687 1.357419 9.718539 9.855733 0.000000 0.000000 0.000000 1.002255 -24.044926 60.303686 -6.405878 41.021628 7.934767 0.000000 0.000000 0.000000 
-0.161077 94.261223 0.092175 0.000000 0.000000 0.000000 -5.558818 -43.483546 -3.577863 -30.846777 4.794749 13.714541 33.783287 -13.034415 0.221808 -0.705784 0.476739 -9.151344 -2.320246 -3.233632 0.817111 0.000000 0.000000 0.000000 -5.558818 -43.483546 -3.577863 -7.005323 -12.726606 -16.639312 32.475121 -9.140955 -1.141033 -17.993601 -3.801692 17.938397 -1.829961 -0.415805 0.392383 0.000000 0.000000 0.000000 -5.558818 -43.483546 -3.577863 5.830232 4.361366 -1.262962 11.814021 8.370872 -3.082743 0.000000 0.000000 0.000000 0.000000 0.000000 0.000000 11.814027 8.370859 -3.082744 -4.864139 -0.432106 -0.128962 -5.531293 23.950786 -1.736577 0.000000 0.000000 0.000000 11.814027 8.370859 -3.082744 1.380346 -0.755283 -7.786170 0.000000 0.000000 0.000000 -14.057723 2.507658 -63.288724 10.062541 -47.983756 6.077420 0.000000 0.000000 0.000000 11.814027 8.370859 -3.082744 1.345658 9.817693 9.847980 0.000000 0.000000 0.000000 0.930055 -24.016904 60.254112 -6.401223 40.809513 7.925757 0.000000 0.000000 0.000000 
-0.160272 94.279579 0.090816 0.000000 0.000000 0.000000 -5.431959 -43.458544 -3.451811 -30.887277 4.789598 13.615145 33.715532 -12.980260 0.275622 -0.697453 0.464143 -9.175084 -2.319308 -3.241207 0.824828 0.000000 0.000000 0.000000 -5.431959 -43.458544 -3.451811 -7.063287 -12.714103 -16.599849 32.403179 -9.224361 -1.237910 -17.957988 -3.798745 18.013454 -1.826651 -0.438026 0.405702 0.000000 0.000000 0.000000 -5.431959 -43.458544 -3.451811 5.836394 4.253047 -1.265622 11.821047 8.154674 -3.073606 0.000000 0.000000 0.000000 0.000000 0.000000 0.000000 11.821043 8.154683 -3.073609 -5.069474 0.072922 -0.161026 -5.637795 25.660394 -2.236061 0.000000 0.000000 0.000000 11.821043 8.154683 -3.073609 1.370378 -0.779473 -7.711519 0.000000 0.000000 0.000000 -14.019021 2.552145 -63.374422 9.993503 -47.981765 6.019852 0.000000 0.000000 0.000000 11.821043 8.154683 -3.073609 1.332280 9.887137 9.837817 0.000000 0.000000 0.000000 0.794928 -23.911357 60.203644 -6.375827 40.567352 7.876134 0.000000 0.000000 0.000000 
-0.151559 94.278870 0.101704 0.000000 0.000000 0.000000 -5.240994 -43.466504 -3.282971 -31.013857 4.762790 13.517714 33.725528 -12.889048 0.329172 -0.722442 0.453194 -9.197324 -2.318784 -3.245980 0.829031 0.000000 0.000000 0.000000 -5.240994 -43.466504 -3.282971 -7.236024 -12.670864 -16.579579 32.424711 -9.280674 -1.338251 -17.948941 -3.814662 18.063916 -1.842623 -0.440822 0.415126 0.000000 0.000000 0.000000 -5.240994 -43.466504 -3.282971 5.824157 4.153015 -1.271288 11.791744 7.954959 -3.069599 0.000000 0.000000 0.000000 0.000000 0.000000 0.000000 11.791742 7.954970 -3.069602 -5.441505 0.704644 -0.272707 -5.743773 27.957993 -2.679249 0.000000 0.000000 0.000000 11.791742 7.954970 -3.069602 1.365304 -0.770382 -7.628039 0.000000 0.000000 0.000000 -13.939468 2.623753 -63.491649 10.137730 -47.962408 6.095009 0.000000 0.000000 0.000000 11.791742 7.954970 -3.069602 1.308434 10.028663 9.848063 0.000000 0.000000 0.000000 0.782394 -23.870751 60.165893 -6.361703 40.447124 7.837348 0.000000 0.000000 0.000000 
